<mxfile host="65bd71144e">
    <diagram id="C5RBs43oDa-KdzZeNtuy" name="Page-1">
        <mxGraphModel dx="1002" dy="563" grid="1" gridSize="10" guides="1" tooltips="1" connect="1" arrows="1" fold="1" page="1" pageScale="1" pageWidth="1169" pageHeight="1654" background="none" math="0" shadow="0">
            <root>
                <mxCell id="WIyWlLk6GJQsqaUBKTNV-0"/>
                <mxCell id="WIyWlLk6GJQsqaUBKTNV-1" parent="WIyWlLk6GJQsqaUBKTNV-0"/>
                <mxCell id="TiLkEybxs9c5vroeXgTj-21" style="edgeStyle=orthogonalEdgeStyle;rounded=0;orthogonalLoop=1;jettySize=auto;html=1;exitX=0.5;exitY=1;exitDx=0;exitDy=0;" parent="WIyWlLk6GJQsqaUBKTNV-1" edge="1">
                    <mxGeometry relative="1" as="geometry">
                        <mxPoint x="554.5" y="80" as="sourcePoint"/>
                        <mxPoint x="554.5" y="140" as="targetPoint"/>
                    </mxGeometry>
                </mxCell>
                <mxCell id="TiLkEybxs9c5vroeXgTj-10" value="" style="edgeStyle=orthogonalEdgeStyle;rounded=0;orthogonalLoop=1;jettySize=auto;html=1;exitX=1;exitY=0.5;exitDx=0;exitDy=0;entryX=0;entryY=0.5;entryDx=0;entryDy=0;" parent="WIyWlLk6GJQsqaUBKTNV-1" target="TiLkEybxs9c5vroeXgTj-108" edge="1">
                    <mxGeometry relative="1" as="geometry">
                        <mxPoint x="467" y="470" as="sourcePoint"/>
                        <mxPoint x="567" y="470" as="targetPoint"/>
                    </mxGeometry>
                </mxCell>
                <mxCell id="TiLkEybxs9c5vroeXgTj-15" value="no" style="text;html=1;align=center;verticalAlign=middle;resizable=0;points=[];autosize=1;strokeColor=none;fillColor=none;" parent="WIyWlLk6GJQsqaUBKTNV-1" vertex="1">
                    <mxGeometry x="347" y="565" width="40" height="30" as="geometry"/>
                </mxCell>
                <mxCell id="TiLkEybxs9c5vroeXgTj-52" style="edgeStyle=orthogonalEdgeStyle;rounded=0;orthogonalLoop=1;jettySize=auto;html=1;exitX=0.5;exitY=1;exitDx=0;exitDy=0;entryX=0;entryY=0.5;entryDx=0;entryDy=0;" parent="WIyWlLk6GJQsqaUBKTNV-1" source="TiLkEybxs9c5vroeXgTj-17" target="TiLkEybxs9c5vroeXgTj-51" edge="1">
                    <mxGeometry relative="1" as="geometry"/>
                </mxCell>
                <mxCell id="TiLkEybxs9c5vroeXgTj-17" value="generate player name like player1, player2 so on also use naming convention for variable" style="whiteSpace=wrap;html=1;fillColor=#bac8d3;strokeColor=#23445d;" parent="WIyWlLk6GJQsqaUBKTNV-1" vertex="1">
                    <mxGeometry x="317" y="640" width="133.75" height="80" as="geometry"/>
                </mxCell>
                <mxCell id="TiLkEybxs9c5vroeXgTj-25" style="edgeStyle=orthogonalEdgeStyle;rounded=0;orthogonalLoop=1;jettySize=auto;html=1;exitX=0;exitY=0.5;exitDx=0;exitDy=0;entryX=0.5;entryY=0;entryDx=0;entryDy=0;" parent="WIyWlLk6GJQsqaUBKTNV-1" source="TiLkEybxs9c5vroeXgTj-20" edge="1">
                    <mxGeometry relative="1" as="geometry">
                        <mxPoint x="362" y="440" as="targetPoint"/>
                    </mxGeometry>
                </mxCell>
                <mxCell id="TiLkEybxs9c5vroeXgTj-32" style="edgeStyle=orthogonalEdgeStyle;rounded=0;orthogonalLoop=1;jettySize=auto;html=1;exitX=0.5;exitY=1;exitDx=0;exitDy=0;entryX=0.5;entryY=0;entryDx=0;entryDy=0;" parent="WIyWlLk6GJQsqaUBKTNV-1" source="TiLkEybxs9c5vroeXgTj-20" edge="1">
                    <mxGeometry relative="1" as="geometry">
                        <mxPoint x="554.5" y="380" as="targetPoint"/>
                    </mxGeometry>
                </mxCell>
                <mxCell id="TiLkEybxs9c5vroeXgTj-97" style="edgeStyle=orthogonalEdgeStyle;rounded=0;orthogonalLoop=1;jettySize=auto;html=1;exitX=1;exitY=0.5;exitDx=0;exitDy=0;entryX=1;entryY=0.5;entryDx=0;entryDy=0;" parent="WIyWlLk6GJQsqaUBKTNV-1" target="TiLkEybxs9c5vroeXgTj-94" edge="1">
                    <mxGeometry relative="1" as="geometry">
                        <mxPoint x="614.5" y="270" as="sourcePoint"/>
                        <Array as="points">
                            <mxPoint x="757" y="270"/>
                            <mxPoint x="757" y="180"/>
                        </Array>
                    </mxGeometry>
                </mxCell>
                <mxCell id="TiLkEybxs9c5vroeXgTj-20" value="check whether user added a number or q(for quit) or else" style="whiteSpace=wrap;html=1;fillColor=#ffcd28;strokeColor=#d79b00;gradientColor=#ffa500;" parent="WIyWlLk6GJQsqaUBKTNV-1" vertex="1">
                    <mxGeometry x="494.5" y="260" width="120" height="60" as="geometry"/>
                </mxCell>
                <mxCell id="TiLkEybxs9c5vroeXgTj-23" value="number" style="text;html=1;align=center;verticalAlign=middle;resizable=0;points=[];autosize=1;strokeColor=none;fillColor=none;" parent="WIyWlLk6GJQsqaUBKTNV-1" vertex="1">
                    <mxGeometry x="367" y="290" width="60" height="30" as="geometry"/>
                </mxCell>
                <mxCell id="TiLkEybxs9c5vroeXgTj-27" value="else" style="text;html=1;align=center;verticalAlign=middle;resizable=0;points=[];autosize=1;strokeColor=none;fillColor=none;" parent="WIyWlLk6GJQsqaUBKTNV-1" vertex="1">
                    <mxGeometry x="707" y="290" width="50" height="30" as="geometry"/>
                </mxCell>
                <mxCell id="TiLkEybxs9c5vroeXgTj-33" value="q" style="text;html=1;align=center;verticalAlign=middle;resizable=0;points=[];autosize=1;strokeColor=none;fillColor=none;" parent="WIyWlLk6GJQsqaUBKTNV-1" vertex="1">
                    <mxGeometry x="552" y="328" width="30" height="30" as="geometry"/>
                </mxCell>
                <mxCell id="TiLkEybxs9c5vroeXgTj-34" value="yes&amp;nbsp;" style="text;html=1;align=center;verticalAlign=middle;resizable=0;points=[];autosize=1;strokeColor=none;fillColor=none;" parent="WIyWlLk6GJQsqaUBKTNV-1" vertex="1">
                    <mxGeometry x="507" y="470" width="50" height="30" as="geometry"/>
                </mxCell>
                <mxCell id="TiLkEybxs9c5vroeXgTj-45" style="edgeStyle=orthogonalEdgeStyle;rounded=0;orthogonalLoop=1;jettySize=auto;html=1;exitX=0.5;exitY=1;exitDx=0;exitDy=0;entryX=0.5;entryY=0;entryDx=0;entryDy=0;" parent="WIyWlLk6GJQsqaUBKTNV-1" source="TiLkEybxs9c5vroeXgTj-37" target="TiLkEybxs9c5vroeXgTj-17" edge="1">
                    <mxGeometry relative="1" as="geometry"/>
                </mxCell>
                <mxCell id="TiLkEybxs9c5vroeXgTj-37" value="User asked if they want to add there name or not(y for yes and n for no):" style="rounded=1;whiteSpace=wrap;html=1;fillColor=#ffe6cc;strokeColor=#d79b00;" parent="WIyWlLk6GJQsqaUBKTNV-1" vertex="1">
                    <mxGeometry x="302" y="440" width="165" height="60" as="geometry"/>
                </mxCell>
                <mxCell id="TiLkEybxs9c5vroeXgTj-42" value="" style="edgeStyle=orthogonalEdgeStyle;rounded=0;orthogonalLoop=1;jettySize=auto;html=1;" parent="WIyWlLk6GJQsqaUBKTNV-1" source="TiLkEybxs9c5vroeXgTj-38" target="TiLkEybxs9c5vroeXgTj-41" edge="1">
                    <mxGeometry relative="1" as="geometry"/>
                </mxCell>
                <mxCell id="TiLkEybxs9c5vroeXgTj-47" style="edgeStyle=orthogonalEdgeStyle;rounded=0;orthogonalLoop=1;jettySize=auto;html=1;exitX=1;exitY=0.5;exitDx=0;exitDy=0;entryX=1;entryY=0.5;entryDx=0;entryDy=0;" parent="WIyWlLk6GJQsqaUBKTNV-1" source="TiLkEybxs9c5vroeXgTj-38" target="TiLkEybxs9c5vroeXgTj-108" edge="1">
                    <mxGeometry relative="1" as="geometry">
                        <mxPoint x="787" y="470" as="targetPoint"/>
                        <Array as="points">
                            <mxPoint x="822" y="580"/>
                            <mxPoint x="822" y="470"/>
                        </Array>
                    </mxGeometry>
                </mxCell>
                <mxCell id="TiLkEybxs9c5vroeXgTj-38" value="Check whether name added by user is correct or not by using regex" style="whiteSpace=wrap;html=1;fillColor=#ffcd28;gradientColor=#ffa500;strokeColor=#d79b00;" parent="WIyWlLk6GJQsqaUBKTNV-1" vertex="1">
                    <mxGeometry x="582" y="550" width="190" height="60" as="geometry"/>
                </mxCell>
                <mxCell id="TiLkEybxs9c5vroeXgTj-53" style="edgeStyle=orthogonalEdgeStyle;rounded=0;orthogonalLoop=1;jettySize=auto;html=1;exitX=0.5;exitY=1;exitDx=0;exitDy=0;entryX=1;entryY=0.5;entryDx=0;entryDy=0;" parent="WIyWlLk6GJQsqaUBKTNV-1" source="TiLkEybxs9c5vroeXgTj-41" target="TiLkEybxs9c5vroeXgTj-51" edge="1">
                    <mxGeometry relative="1" as="geometry"/>
                </mxCell>
                <mxCell id="TiLkEybxs9c5vroeXgTj-41" value="according to name generate variable&amp;nbsp;" style="whiteSpace=wrap;html=1;fillColor=#cce5ff;strokeColor=#36393d;" parent="WIyWlLk6GJQsqaUBKTNV-1" vertex="1">
                    <mxGeometry x="617" y="660" width="120" height="60" as="geometry"/>
                </mxCell>
                <mxCell id="TiLkEybxs9c5vroeXgTj-46" value="yes" style="text;html=1;align=center;verticalAlign=middle;resizable=0;points=[];autosize=1;strokeColor=none;fillColor=none;" parent="WIyWlLk6GJQsqaUBKTNV-1" vertex="1">
                    <mxGeometry x="672" y="620" width="40" height="30" as="geometry"/>
                </mxCell>
                <mxCell id="TiLkEybxs9c5vroeXgTj-48" value="no" style="text;html=1;align=center;verticalAlign=middle;resizable=0;points=[];autosize=1;strokeColor=none;fillColor=none;" parent="WIyWlLk6GJQsqaUBKTNV-1" vertex="1">
                    <mxGeometry x="822" y="508" width="40" height="30" as="geometry"/>
                </mxCell>
                <mxCell id="TiLkEybxs9c5vroeXgTj-49" value="name should be&lt;div&gt;&amp;nbsp;checked for every&lt;/div&gt;&lt;div&gt;&amp;nbsp;individual user&lt;/div&gt;" style="text;html=1;align=center;verticalAlign=middle;resizable=0;points=[];autosize=1;strokeColor=none;fillColor=none;" parent="WIyWlLk6GJQsqaUBKTNV-1" vertex="1">
                    <mxGeometry x="772" y="630" width="120" height="60" as="geometry"/>
                </mxCell>
                <mxCell id="TiLkEybxs9c5vroeXgTj-60" style="edgeStyle=orthogonalEdgeStyle;rounded=0;orthogonalLoop=1;jettySize=auto;html=1;exitX=0.5;exitY=1;exitDx=0;exitDy=0;entryX=0.5;entryY=0;entryDx=0;entryDy=0;" parent="WIyWlLk6GJQsqaUBKTNV-1" source="TiLkEybxs9c5vroeXgTj-51" target="TiLkEybxs9c5vroeXgTj-59" edge="1">
                    <mxGeometry relative="1" as="geometry"/>
                </mxCell>
                <mxCell id="TiLkEybxs9c5vroeXgTj-106" style="edgeStyle=orthogonalEdgeStyle;rounded=0;orthogonalLoop=1;jettySize=auto;html=1;exitX=0.25;exitY=1;exitDx=0;exitDy=0;entryX=1;entryY=0.75;entryDx=0;entryDy=0;" parent="WIyWlLk6GJQsqaUBKTNV-1" source="TiLkEybxs9c5vroeXgTj-51" target="TiLkEybxs9c5vroeXgTj-75" edge="1">
                    <mxGeometry relative="1" as="geometry"/>
                </mxCell>
                <mxCell id="TiLkEybxs9c5vroeXgTj-107" value="no" style="edgeLabel;html=1;align=center;verticalAlign=middle;resizable=0;points=[];" parent="TiLkEybxs9c5vroeXgTj-106" vertex="1" connectable="0">
                    <mxGeometry x="-0.0367" y="-9" relative="1" as="geometry">
                        <mxPoint x="-2" y="21" as="offset"/>
                    </mxGeometry>
                </mxCell>
                <mxCell id="TiLkEybxs9c5vroeXgTj-51" value="Ask player to roll the dice [from the sequence]&lt;div&gt;&quot;yes or no&quot;&lt;/div&gt;" style="rounded=1;whiteSpace=wrap;html=1;fillColor=#e1d5e7;strokeColor=#9673a6;" parent="WIyWlLk6GJQsqaUBKTNV-1" vertex="1">
                    <mxGeometry x="494.5" y="750" width="120" height="60" as="geometry"/>
                </mxCell>
                <mxCell id="TiLkEybxs9c5vroeXgTj-62" style="edgeStyle=orthogonalEdgeStyle;rounded=0;orthogonalLoop=1;jettySize=auto;html=1;exitX=0.5;exitY=1;exitDx=0;exitDy=0;" parent="WIyWlLk6GJQsqaUBKTNV-1" source="TiLkEybxs9c5vroeXgTj-59" target="TiLkEybxs9c5vroeXgTj-61" edge="1">
                    <mxGeometry relative="1" as="geometry"/>
                </mxCell>
                <mxCell id="TiLkEybxs9c5vroeXgTj-72" style="edgeStyle=orthogonalEdgeStyle;rounded=0;orthogonalLoop=1;jettySize=auto;html=1;exitX=0;exitY=0.5;exitDx=0;exitDy=0;entryX=0.5;entryY=0;entryDx=0;entryDy=0;" parent="WIyWlLk6GJQsqaUBKTNV-1" source="TiLkEybxs9c5vroeXgTj-59" target="TiLkEybxs9c5vroeXgTj-64" edge="1">
                    <mxGeometry relative="1" as="geometry"/>
                </mxCell>
                <mxCell id="TiLkEybxs9c5vroeXgTj-59" value="dice is rolled" style="whiteSpace=wrap;html=1;fillColor=#eeeeee;strokeColor=#36393d;" parent="WIyWlLk6GJQsqaUBKTNV-1" vertex="1">
                    <mxGeometry x="494.5" y="878" width="120" height="60" as="geometry"/>
                </mxCell>
                <mxCell id="TiLkEybxs9c5vroeXgTj-102" style="edgeStyle=orthogonalEdgeStyle;rounded=0;orthogonalLoop=1;jettySize=auto;html=1;exitX=0.5;exitY=1;exitDx=0;exitDy=0;entryX=0.5;entryY=0;entryDx=0;entryDy=0;" parent="WIyWlLk6GJQsqaUBKTNV-1" source="TiLkEybxs9c5vroeXgTj-61" target="TiLkEybxs9c5vroeXgTj-99" edge="1">
                    <mxGeometry relative="1" as="geometry"/>
                </mxCell>
                <mxCell id="TiLkEybxs9c5vroeXgTj-61" value="dice number added to score of player variable" style="whiteSpace=wrap;html=1;fillColor=#cdeb8b;strokeColor=#36393d;" parent="WIyWlLk6GJQsqaUBKTNV-1" vertex="1">
                    <mxGeometry x="494.5" y="990" width="120" height="60" as="geometry"/>
                </mxCell>
                <mxCell id="TiLkEybxs9c5vroeXgTj-63" value="2-6 comes" style="text;html=1;align=center;verticalAlign=middle;resizable=0;points=[];autosize=1;strokeColor=none;fillColor=none;" parent="WIyWlLk6GJQsqaUBKTNV-1" vertex="1">
                    <mxGeometry x="557" y="948" width="80" height="30" as="geometry"/>
                </mxCell>
                <mxCell id="TiLkEybxs9c5vroeXgTj-67" style="edgeStyle=orthogonalEdgeStyle;rounded=0;orthogonalLoop=1;jettySize=auto;html=1;exitX=0.5;exitY=1;exitDx=0;exitDy=0;" parent="WIyWlLk6GJQsqaUBKTNV-1" source="TiLkEybxs9c5vroeXgTj-64" edge="1">
                    <mxGeometry relative="1" as="geometry">
                        <mxPoint x="416.75" y="1080" as="targetPoint"/>
                    </mxGeometry>
                </mxCell>
                <mxCell id="TiLkEybxs9c5vroeXgTj-64" value="&amp;nbsp;player variable becomes zero" style="whiteSpace=wrap;html=1;fillColor=#ffcc99;strokeColor=#36393d;" parent="WIyWlLk6GJQsqaUBKTNV-1" vertex="1">
                    <mxGeometry x="357" y="990" width="120" height="60" as="geometry"/>
                </mxCell>
                <mxCell id="TiLkEybxs9c5vroeXgTj-66" value="1 comes" style="text;html=1;align=center;verticalAlign=middle;resizable=0;points=[];autosize=1;strokeColor=none;fillColor=none;" parent="WIyWlLk6GJQsqaUBKTNV-1" vertex="1">
                    <mxGeometry x="432" y="876" width="70" height="30" as="geometry"/>
                </mxCell>
                <mxCell id="TiLkEybxs9c5vroeXgTj-76" style="edgeStyle=orthogonalEdgeStyle;rounded=0;orthogonalLoop=1;jettySize=auto;html=1;exitX=0;exitY=0.5;exitDx=0;exitDy=0;entryX=0.25;entryY=1;entryDx=0;entryDy=0;" parent="WIyWlLk6GJQsqaUBKTNV-1" source="TiLkEybxs9c5vroeXgTj-69" target="TiLkEybxs9c5vroeXgTj-75" edge="1">
                    <mxGeometry relative="1" as="geometry"/>
                </mxCell>
                <mxCell id="TiLkEybxs9c5vroeXgTj-69" value="that player turns over" style="ellipse;whiteSpace=wrap;html=1;fillColor=#ffe6cc;strokeColor=#d79b00;" parent="WIyWlLk6GJQsqaUBKTNV-1" vertex="1">
                    <mxGeometry x="371.38" y="1080" width="91.25" height="60" as="geometry"/>
                </mxCell>
                <mxCell id="TiLkEybxs9c5vroeXgTj-70" value="start" style="ellipse;whiteSpace=wrap;html=1;fillColor=#d5e8d4;strokeColor=#82b366;" parent="WIyWlLk6GJQsqaUBKTNV-1" vertex="1">
                    <mxGeometry x="494.5" y="10" width="120" height="80" as="geometry"/>
                </mxCell>
                <mxCell id="TiLkEybxs9c5vroeXgTj-71" value="stop" style="ellipse;whiteSpace=wrap;html=1;fillColor=#f8cecc;strokeColor=#b85450;gradientColor=#ea6b66;" parent="WIyWlLk6GJQsqaUBKTNV-1" vertex="1">
                    <mxGeometry x="525.75" y="380" width="57.5" height="40" as="geometry"/>
                </mxCell>
                <mxCell id="TiLkEybxs9c5vroeXgTj-78" style="edgeStyle=orthogonalEdgeStyle;rounded=0;orthogonalLoop=1;jettySize=auto;html=1;exitX=1;exitY=0.5;exitDx=0;exitDy=0;entryX=0;entryY=0.75;entryDx=0;entryDy=0;" parent="WIyWlLk6GJQsqaUBKTNV-1" source="TiLkEybxs9c5vroeXgTj-75" target="TiLkEybxs9c5vroeXgTj-51" edge="1">
                    <mxGeometry relative="1" as="geometry"/>
                </mxCell>
                <mxCell id="TiLkEybxs9c5vroeXgTj-75" value="&lt;span style=&quot;text-wrap: nowrap;&quot;&gt;Ask another player&lt;/span&gt;&lt;div&gt;&lt;span style=&quot;text-wrap: nowrap;&quot;&gt;[from the sequence]&lt;/span&gt;&lt;/div&gt;" style="whiteSpace=wrap;html=1;fillColor=#dae8fc;gradientColor=#7ea6e0;strokeColor=#6c8ebf;" parent="WIyWlLk6GJQsqaUBKTNV-1" vertex="1">
                    <mxGeometry x="318.25" y="810" width="110" height="48" as="geometry"/>
                </mxCell>
                <mxCell id="TiLkEybxs9c5vroeXgTj-90" style="edgeStyle=orthogonalEdgeStyle;rounded=0;orthogonalLoop=1;jettySize=auto;html=1;exitX=0;exitY=0.5;exitDx=0;exitDy=0;entryX=1;entryY=0.75;entryDx=0;entryDy=0;" parent="WIyWlLk6GJQsqaUBKTNV-1" source="TiLkEybxs9c5vroeXgTj-80" target="TiLkEybxs9c5vroeXgTj-51" edge="1">
                    <mxGeometry relative="1" as="geometry"/>
                </mxCell>
                <mxCell id="TiLkEybxs9c5vroeXgTj-80" value="&lt;span style=&quot;text-wrap: nowrap;&quot;&gt;Ask same player&lt;/span&gt;&lt;div&gt;&lt;span style=&quot;text-wrap: nowrap;&quot;&gt;[from the sequence]&lt;/span&gt;&lt;/div&gt;" style="whiteSpace=wrap;html=1;fillColor=#dae8fc;gradientColor=#7ea6e0;strokeColor=#6c8ebf;" parent="WIyWlLk6GJQsqaUBKTNV-1" vertex="1">
                    <mxGeometry x="672" y="810" width="110" height="48" as="geometry"/>
                </mxCell>
                <mxCell id="TiLkEybxs9c5vroeXgTj-85" style="edgeStyle=orthogonalEdgeStyle;rounded=0;orthogonalLoop=1;jettySize=auto;html=1;exitX=1;exitY=0.5;exitDx=0;exitDy=0;entryX=0.5;entryY=1;entryDx=0;entryDy=0;" parent="WIyWlLk6GJQsqaUBKTNV-1" source="TiLkEybxs9c5vroeXgTj-99" target="TiLkEybxs9c5vroeXgTj-80" edge="1">
                    <mxGeometry relative="1" as="geometry">
                        <mxPoint x="614.5" y="1110" as="sourcePoint"/>
                    </mxGeometry>
                </mxCell>
                <mxCell id="TiLkEybxs9c5vroeXgTj-84" value="less than 50" style="text;html=1;align=center;verticalAlign=middle;resizable=0;points=[];autosize=1;strokeColor=none;fillColor=none;" parent="WIyWlLk6GJQsqaUBKTNV-1" vertex="1">
                    <mxGeometry x="632" y="1170" width="90" height="30" as="geometry"/>
                </mxCell>
                <mxCell id="TiLkEybxs9c5vroeXgTj-93" value="equl or greater&lt;div&gt;&amp;nbsp;than 50&lt;/div&gt;" style="text;html=1;align=center;verticalAlign=middle;resizable=0;points=[];autosize=1;strokeColor=none;fillColor=none;" parent="WIyWlLk6GJQsqaUBKTNV-1" vertex="1">
                    <mxGeometry x="552" y="1260" width="100" height="40" as="geometry"/>
                </mxCell>
                <mxCell id="TiLkEybxs9c5vroeXgTj-98" style="edgeStyle=orthogonalEdgeStyle;rounded=0;orthogonalLoop=1;jettySize=auto;html=1;exitX=0.5;exitY=1;exitDx=0;exitDy=0;entryX=0.5;entryY=0;entryDx=0;entryDy=0;" parent="WIyWlLk6GJQsqaUBKTNV-1" source="TiLkEybxs9c5vroeXgTj-94" target="TiLkEybxs9c5vroeXgTj-20" edge="1">
                    <mxGeometry relative="1" as="geometry"/>
                </mxCell>
                <mxCell id="TiLkEybxs9c5vroeXgTj-94" value="User asked to enter the number of players:&lt;div&gt;&quot;Number of players(Enter a number between 1 to 6 and if you want to quit press q):&amp;nbsp;&lt;/div&gt;" style="shape=parallelogram;perimeter=parallelogramPerimeter;whiteSpace=wrap;html=1;fixedSize=1;fillColor=#ffff88;strokeColor=#36393d;" parent="WIyWlLk6GJQsqaUBKTNV-1" vertex="1">
                    <mxGeometry x="378.25" y="140" width="352.5" height="80" as="geometry"/>
                </mxCell>
                <mxCell id="TiLkEybxs9c5vroeXgTj-103" style="edgeStyle=orthogonalEdgeStyle;rounded=0;orthogonalLoop=1;jettySize=auto;html=1;exitX=0.5;exitY=1;exitDx=0;exitDy=0;entryX=0.5;entryY=0;entryDx=0;entryDy=0;" parent="WIyWlLk6GJQsqaUBKTNV-1" source="TiLkEybxs9c5vroeXgTj-99" target="Jtrg5eetVvwyfk46_zp6-0" edge="1">
                    <mxGeometry relative="1" as="geometry">
                        <mxPoint x="554.5" y="1350" as="targetPoint"/>
                    </mxGeometry>
                </mxCell>
                <mxCell id="TiLkEybxs9c5vroeXgTj-99" value="player variable is equal or greater to 50" style="rhombus;whiteSpace=wrap;html=1;fillColor=#e6d0de;strokeColor=#996185;gradientColor=#d5739d;" parent="WIyWlLk6GJQsqaUBKTNV-1" vertex="1">
                    <mxGeometry x="467" y="1080" width="175" height="170" as="geometry"/>
                </mxCell>
                <mxCell id="TiLkEybxs9c5vroeXgTj-105" value="yes" style="text;html=1;align=center;verticalAlign=middle;resizable=0;points=[];autosize=1;strokeColor=none;fillColor=none;" parent="WIyWlLk6GJQsqaUBKTNV-1" vertex="1">
                    <mxGeometry x="547" y="828" width="40" height="30" as="geometry"/>
                </mxCell>
                <mxCell id="TiLkEybxs9c5vroeXgTj-110" style="edgeStyle=orthogonalEdgeStyle;rounded=0;orthogonalLoop=1;jettySize=auto;html=1;exitX=0.5;exitY=1;exitDx=0;exitDy=0;entryX=0.5;entryY=0;entryDx=0;entryDy=0;" parent="WIyWlLk6GJQsqaUBKTNV-1" source="TiLkEybxs9c5vroeXgTj-108" target="TiLkEybxs9c5vroeXgTj-38" edge="1">
                    <mxGeometry relative="1" as="geometry"/>
                </mxCell>
                <mxCell id="TiLkEybxs9c5vroeXgTj-108" value="User asked to add name(sequentially (player1, player2 then so on))&lt;div&gt;use regex&amp;nbsp;&lt;/div&gt;" style="shape=parallelogram;perimeter=parallelogramPerimeter;whiteSpace=wrap;html=1;fixedSize=1;fillColor=#ffff88;strokeColor=#36393d;" parent="WIyWlLk6GJQsqaUBKTNV-1" vertex="1">
                    <mxGeometry x="557" y="440" width="240" height="60" as="geometry"/>
                </mxCell>
                <mxCell id="Jtrg5eetVvwyfk46_zp6-6" style="edgeStyle=orthogonalEdgeStyle;rounded=0;orthogonalLoop=1;jettySize=auto;html=1;exitX=0;exitY=0.5;exitDx=0;exitDy=0;entryX=1;entryY=0.5;entryDx=0;entryDy=0;" parent="WIyWlLk6GJQsqaUBKTNV-1" source="Jtrg5eetVvwyfk46_zp6-0" target="Jtrg5eetVvwyfk46_zp6-3" edge="1">
                    <mxGeometry relative="1" as="geometry">
                        <Array as="points">
                            <mxPoint x="490" y="1380"/>
                            <mxPoint x="490" y="1235"/>
                        </Array>
                    </mxGeometry>
                </mxCell>
                <mxCell id="Jtrg5eetVvwyfk46_zp6-0" value="&amp;nbsp;player wins" style="shape=parallelogram;perimeter=parallelogramPerimeter;whiteSpace=wrap;html=1;fixedSize=1;fillColor=#60a917;fontColor=#ffffff;strokeColor=#2D7600;" parent="WIyWlLk6GJQsqaUBKTNV-1" vertex="1">
                    <mxGeometry x="494.5" y="1350" width="120" height="60" as="geometry"/>
                </mxCell>
                <mxCell id="Jtrg5eetVvwyfk46_zp6-5" style="edgeStyle=orthogonalEdgeStyle;rounded=0;orthogonalLoop=1;jettySize=auto;html=1;exitX=0.5;exitY=1;exitDx=0;exitDy=0;entryX=0.5;entryY=0;entryDx=0;entryDy=0;" parent="WIyWlLk6GJQsqaUBKTNV-1" source="Jtrg5eetVvwyfk46_zp6-3" target="Jtrg5eetVvwyfk46_zp6-4" edge="1">
                    <mxGeometry relative="1" as="geometry"/>
                </mxCell>
                <mxCell id="Jtrg5eetVvwyfk46_zp6-11" style="edgeStyle=orthogonalEdgeStyle;rounded=0;orthogonalLoop=1;jettySize=auto;html=1;exitX=0;exitY=0.25;exitDx=0;exitDy=0;entryX=0;entryY=0.5;entryDx=0;entryDy=0;" parent="WIyWlLk6GJQsqaUBKTNV-1" source="Jtrg5eetVvwyfk46_zp6-3" target="TiLkEybxs9c5vroeXgTj-70" edge="1">
                    <mxGeometry relative="1" as="geometry">
                        <Array as="points">
                            <mxPoint x="277" y="1218"/>
                            <mxPoint x="277" y="50"/>
                        </Array>
                    </mxGeometry>
                </mxCell>
                <mxCell id="Jtrg5eetVvwyfk46_zp6-3" value="Ask if player want to play again or see previous winners or quit" style="rounded=1;whiteSpace=wrap;html=1;fillColor=#e1d5e7;strokeColor=#9673a6;" parent="WIyWlLk6GJQsqaUBKTNV-1" vertex="1">
                    <mxGeometry x="334.82" y="1200" width="135.63" height="70" as="geometry"/>
                </mxCell>
                <mxCell id="Jtrg5eetVvwyfk46_zp6-8" style="edgeStyle=orthogonalEdgeStyle;rounded=0;orthogonalLoop=1;jettySize=auto;html=1;exitX=0.5;exitY=1;exitDx=0;exitDy=0;entryX=0;entryY=0.5;entryDx=0;entryDy=0;" parent="WIyWlLk6GJQsqaUBKTNV-1" source="Jtrg5eetVvwyfk46_zp6-4" target="Jtrg5eetVvwyfk46_zp6-7" edge="1">
                    <mxGeometry relative="1" as="geometry"/>
                </mxCell>
                <mxCell id="Jtrg5eetVvwyfk46_zp6-4" value="show&amp;nbsp;&lt;div&gt;previous winner&lt;/div&gt;" style="shape=parallelogram;perimeter=parallelogramPerimeter;whiteSpace=wrap;html=1;fixedSize=1;fillColor=#d5e8d4;strokeColor=#82b366;" parent="WIyWlLk6GJQsqaUBKTNV-1" vertex="1">
                    <mxGeometry x="339.82" y="1350" width="125.63" height="60" as="geometry"/>
                </mxCell>
                <mxCell id="Jtrg5eetVvwyfk46_zp6-7" value="stop" style="ellipse;whiteSpace=wrap;html=1;fillColor=#f8cecc;strokeColor=#b85450;gradientColor=#ea6b66;" parent="WIyWlLk6GJQsqaUBKTNV-1" vertex="1">
                    <mxGeometry x="494.5" y="1460" width="120" height="80" as="geometry"/>
                </mxCell>
                <mxCell id="Jtrg5eetVvwyfk46_zp6-9" style="edgeStyle=orthogonalEdgeStyle;rounded=0;orthogonalLoop=1;jettySize=auto;html=1;exitX=0;exitY=0.75;exitDx=0;exitDy=0;entryX=0;entryY=1;entryDx=0;entryDy=0;" parent="WIyWlLk6GJQsqaUBKTNV-1" source="Jtrg5eetVvwyfk46_zp6-3" target="Jtrg5eetVvwyfk46_zp6-7" edge="1">
                    <mxGeometry relative="1" as="geometry">
                        <mxPoint x="457" y="1530" as="targetPoint"/>
                        <Array as="points">
                            <mxPoint x="277" y="1253"/>
                            <mxPoint x="277" y="1528"/>
                        </Array>
                    </mxGeometry>
                </mxCell>
                <mxCell id="Jtrg5eetVvwyfk46_zp6-10" value="q for quit" style="text;html=1;align=center;verticalAlign=middle;resizable=0;points=[];autosize=1;strokeColor=none;fillColor=none;" parent="WIyWlLk6GJQsqaUBKTNV-1" vertex="1">
                    <mxGeometry x="287" y="1528" width="70" height="30" as="geometry"/>
                </mxCell>
                <mxCell id="Jtrg5eetVvwyfk46_zp6-12" value="y for yes" style="text;html=1;align=center;verticalAlign=middle;resizable=0;points=[];autosize=1;strokeColor=none;fillColor=none;" parent="WIyWlLk6GJQsqaUBKTNV-1" vertex="1">
                    <mxGeometry x="200" y="1130" width="70" height="30" as="geometry"/>
                </mxCell>
            </root>
        </mxGraphModel>
    </diagram>
</mxfile>